<?xml version="1.0" encoding="UTF-8" standalone="no"?>
<svg
   xmlns:dc="http://purl.org/dc/elements/1.1/"
   xmlns:cc="http://creativecommons.org/ns#"
   xmlns:rdf="http://www.w3.org/1999/02/22-rdf-syntax-ns#"
   xmlns:svg="http://www.w3.org/2000/svg"
   xmlns="http://www.w3.org/2000/svg"
   viewBox="0 0 666.66669 666.66669"
   height="666.66669"
   width="666.66669"
   xml:space="preserve"
   id="svg2"
   version="1.1"><metadata
     id="metadata8"><rdf:RDF><cc:Work
         rdf:about=""><dc:format>image/svg+xml</dc:format><dc:type
           rdf:resource="http://purl.org/dc/dcmitype/StillImage" /></cc:Work></rdf:RDF></metadata><defs
     id="defs6"><clipPath
       id="clipPath20"
       clipPathUnits="userSpaceOnUse"><path
         id="path18"
         d="M 0,500 H 500 V 0 H 0 Z" /></clipPath></defs><g
     transform="matrix(1.3333333,0,0,-1.3333333,0,666.66667)"
     id="g10"><path
       id="path12"
       style="fill:#00e9ee;fill-opacity:1;fill-rule:nonzero;stroke:none"
       d="M 0,0 H 500 V 500 H 0 Z" /><g
       id="g14"><g
         clip-path="url(#clipPath20)"
         id="g16"><g
           transform="translate(397.9676,298.5769)"
           id="g22"><path
             id="path24"
             style="fill:#f17600;fill-opacity:1;fill-rule:nonzero;stroke:none"
             d="m 0,0 c -0.296,-4.792 -65.771,-8.659 -145.94,-3.713 -80.168,4.945 -144.573,18.436 -144.377,21.622 3.067,49.706 48.466,99.151 151.435,92.799 C -31.292,104.07 3.065,49.706 0,0" /></g><g
           transform="translate(191.8113,353.8191)"
           id="g26"><path
             id="path28"
             style="fill:#161621;fill-opacity:1;fill-rule:nonzero;stroke:none"
             d="m 0,0 c 12.731,1.971 25.636,2.709 38.522,2.854 3.222,0.009 6.448,0.054 9.671,-0.02 l 9.67,-0.269 c 6.44,-0.349 12.881,-0.72 19.302,-1.35 3.212,-0.305 6.423,-0.611 9.619,-1.055 3.199,-0.416 6.403,-0.798 9.598,-1.243 l 9.542,-1.617 c 1.588,-0.282 3.184,-0.51 4.764,-0.838 l 4.732,-1.016 c 3.148,-0.699 6.314,-1.307 9.445,-2.079 l 9.35,-2.474 c 1.551,-0.437 3.112,-0.828 4.652,-1.301 l 4.603,-1.479 c 3.064,-0.994 6.116,-2.018 9.156,-3.063 -12.609,2.634 -25.105,5.42 -37.776,7.327 -6.302,1.111 -12.661,1.873 -18.988,2.789 -6.359,0.694 -12.693,1.59 -19.074,2.069 -12.727,1.274 -25.506,2.052 -38.304,2.51 C 25.682,0.187 12.864,0.321 0,0" /></g><g
           transform="translate(370.6707,357.6253)"
           id="g30"><path
             id="path32"
             style="fill:#f89b22;fill-opacity:1;fill-rule:nonzero;stroke:none"
             d="m 0,0 c -2.588,-8.592 -31.539,2.981 -68.224,14.03 -36.685,11.05 -67.212,17.393 -64.624,25.985 2.588,8.592 34.425,6.6 71.111,-4.45 C -25.053,24.516 2.589,8.592 0,0" /></g><g
           transform="translate(355.3494,368.5432)"
           id="g34"><path
             id="path36"
             style="fill:#ffbf4e;fill-opacity:1;fill-rule:nonzero;stroke:none"
             d="m 0,0 c -1.357,-4.507 -22.987,3.504 -50.178,11.694 -27.191,8.191 -49.647,13.458 -48.29,17.965 1.359,4.508 24.501,1.522 51.693,-6.669 C -19.585,14.8 1.357,4.507 0,0" /></g><g
           transform="translate(397.9676,298.5769)"
           id="g38"><path
             id="path40"
             style="fill:none;stroke:#161621;stroke-width:4;stroke-linecap:butt;stroke-linejoin:miter;stroke-miterlimit:10;stroke-dasharray:none;stroke-opacity:1"
             d="m 0,0 c -0.296,-4.792 -65.771,-8.659 -145.94,-3.713 -80.168,4.945 -144.573,18.436 -144.377,21.622 3.067,49.706 48.466,99.151 151.435,92.799 C -31.292,104.07 3.065,49.706 0,0 Z" /></g><g
           transform="translate(397.9676,298.5769)"
           id="g42"><path
             id="path44"
             style="fill:#b65100;fill-opacity:1;fill-rule:nonzero;stroke:none"
             d="m 0,0 c -1.366,-22.143 -67.463,-36.084 -147.632,-31.139 -80.168,4.946 -144.051,26.905 -142.685,49.048 1.366,22.143 67.463,36.085 147.631,31.139 C -62.517,44.103 1.365,22.143 0,0" /></g><g
           transform="translate(397.9676,298.5769)"
           id="g46"><path
             id="path48"
             style="fill:none;stroke:#161621;stroke-width:4;stroke-linecap:butt;stroke-linejoin:miter;stroke-miterlimit:10;stroke-dasharray:none;stroke-opacity:1"
             d="m 0,0 c -1.366,-22.143 -67.463,-36.084 -147.632,-31.139 -80.168,4.946 -144.051,26.905 -142.685,49.048 1.366,22.143 67.463,36.085 147.631,31.139 C -62.517,44.103 1.365,22.143 0,0 Z" /></g><g
           transform="translate(119.0901,338.8689)"
           id="g50"><path
             id="path52"
             style="fill:#161621;fill-opacity:1;fill-rule:nonzero;stroke:none"
             d="m 0,0 c 0.765,2.634 1.834,5.183 3.036,7.66 1.19,2.487 2.574,4.878 4.034,7.224 1.461,2.348 3.1,4.577 4.764,6.793 0.858,1.086 1.73,2.163 2.629,3.218 0.927,1.029 1.82,2.093 2.776,3.096 3.766,4.077 7.95,7.758 12.341,11.16 4.43,3.353 9.14,6.321 13.986,9.024 l 3.69,1.924 3.766,1.765 c 1.248,0.606 2.526,1.141 3.81,1.66 1.285,0.518 2.55,1.086 3.853,1.555 2.62,0.892 5.203,1.891 7.867,2.636 l 3.97,1.187 4.024,0.978 c 10.73,2.575 21.714,3.907 32.67,3.959 C 96.398,62.127 85.727,59.95 75.353,56.864 64.987,53.781 54.904,49.836 45.477,44.664 36.023,39.561 27.219,33.263 19.455,25.809 15.575,22.082 11.947,18.073 8.673,13.769 7.012,11.634 5.458,9.413 3.999,7.122 2.547,4.829 1.156,2.481 0,0" /></g><g
           transform="translate(320.2205,393.1482)"
           id="g54"><path
             id="path56"
             style="fill:#ffe7ad;fill-opacity:1;fill-rule:nonzero;stroke:none"
             d="M 0,0 C -2.335,1.913 -4.906,6.396 -3.47,8.151 -2.032,9.905 2.869,8.266 5.205,6.353 7.54,4.44 8.269,1.467 6.831,-0.288 5.394,-2.042 2.335,-1.913 0,0" /></g><g
           transform="translate(320.2205,393.1482)"
           id="g58"><path
             id="path60"
             style="fill:none;stroke:#161621;stroke-width:2;stroke-linecap:butt;stroke-linejoin:miter;stroke-miterlimit:10;stroke-dasharray:none;stroke-opacity:1"
             d="M 0,0 C -2.335,1.913 -4.906,6.396 -3.47,8.151 -2.032,9.905 2.869,8.266 5.205,6.353 7.54,4.44 8.269,1.467 6.831,-0.288 5.394,-2.042 2.335,-1.913 0,0 Z" /></g><g
           transform="translate(356.7615,340.3929)"
           id="g62"><path
             id="path64"
             style="fill:#ffe7ad;fill-opacity:1;fill-rule:nonzero;stroke:none"
             d="M 0,0 C -2.335,1.913 -4.906,6.396 -3.469,8.151 -2.031,9.905 2.87,8.266 5.205,6.353 7.54,4.439 8.269,1.466 6.831,-0.288 5.394,-2.042 2.336,-1.914 0,0" /></g><g
           transform="translate(356.7615,340.3929)"
           id="g66"><path
             id="path68"
             style="fill:none;stroke:#161621;stroke-width:2;stroke-linecap:butt;stroke-linejoin:miter;stroke-miterlimit:10;stroke-dasharray:none;stroke-opacity:1"
             d="M 0,0 C -2.335,1.913 -4.906,6.396 -3.469,8.151 -2.031,9.905 2.87,8.266 5.205,6.353 7.54,4.439 8.269,1.466 6.831,-0.288 5.394,-2.042 2.336,-1.914 0,0 Z" /></g><g
           transform="translate(289.5984,384.054)"
           id="g70"><path
             id="path72"
             style="fill:#ffe7ad;fill-opacity:1;fill-rule:nonzero;stroke:none"
             d="M 0,0 C 0.879,2.888 4.045,6.973 6.215,6.312 8.384,5.652 8.736,0.496 7.856,-2.393 6.978,-5.28 4.506,-7.086 2.336,-6.426 0.166,-5.765 -0.88,-2.888 0,0" /></g><g
           transform="translate(289.5984,384.054)"
           id="g74"><path
             id="path76"
             style="fill:none;stroke:#161621;stroke-width:2;stroke-linecap:butt;stroke-linejoin:miter;stroke-miterlimit:10;stroke-dasharray:none;stroke-opacity:1"
             d="M 0,0 C 0.879,2.888 4.045,6.973 6.215,6.312 8.384,5.652 8.736,0.496 7.856,-2.393 6.978,-5.28 4.506,-7.086 2.336,-6.426 0.166,-5.765 -0.88,-2.888 0,0 Z" /></g><g
           transform="translate(378.6961,336.7078)"
           id="g78"><path
             id="path80"
             style="fill:#ffe7ad;fill-opacity:1;fill-rule:nonzero;stroke:none"
             d="M 0,0 C 0.88,2.888 4.046,6.974 6.215,6.312 8.385,5.652 8.736,0.496 7.857,-2.392 6.978,-5.28 4.506,-7.086 2.336,-6.425 0.167,-5.765 -0.879,-2.888 0,0" /></g><g
           transform="translate(378.6961,336.7078)"
           id="g82"><path
             id="path84"
             style="fill:none;stroke:#161621;stroke-width:2;stroke-linecap:butt;stroke-linejoin:miter;stroke-miterlimit:10;stroke-dasharray:none;stroke-opacity:1"
             d="M 0,0 C 0.88,2.888 4.046,6.974 6.215,6.312 8.385,5.652 8.736,0.496 7.857,-2.392 6.978,-5.28 4.506,-7.086 2.336,-6.425 0.167,-5.765 -0.879,-2.888 0,0 Z" /></g><g
           transform="translate(302.1209,361.7703)"
           id="g86"><path
             id="path88"
             style="fill:#ffe7ad;fill-opacity:1;fill-rule:nonzero;stroke:none"
             d="M 0,0 C 0.88,2.888 4.046,6.974 6.215,6.312 8.385,5.652 8.736,0.496 7.857,-2.392 6.978,-5.28 4.506,-7.086 2.336,-6.425 0.167,-5.765 -0.879,-2.888 0,0" /></g><g
           transform="translate(302.1209,361.7703)"
           id="g90"><path
             id="path92"
             style="fill:none;stroke:#161621;stroke-width:2;stroke-linecap:butt;stroke-linejoin:miter;stroke-miterlimit:10;stroke-dasharray:none;stroke-opacity:1"
             d="M 0,0 C 0.88,2.888 4.046,6.974 6.215,6.312 8.385,5.652 8.736,0.496 7.857,-2.392 6.978,-5.28 4.506,-7.086 2.336,-6.425 0.167,-5.765 -0.879,-2.888 0,0 Z" /></g><g
           transform="translate(320.8006,358.4632)"
           id="g94"><path
             id="path96"
             style="fill:#ffe7ad;fill-opacity:1;fill-rule:nonzero;stroke:none"
             d="M 0,0 C 0.88,2.888 4.045,6.973 6.215,6.312 8.385,5.652 8.736,0.496 7.856,-2.393 6.978,-5.28 4.506,-7.086 2.336,-6.426 0.166,-5.765 -0.88,-2.888 0,0" /></g><g
           transform="translate(320.8006,358.4632)"
           id="g98"><path
             id="path100"
             style="fill:none;stroke:#161621;stroke-width:2;stroke-linecap:butt;stroke-linejoin:miter;stroke-miterlimit:10;stroke-dasharray:none;stroke-opacity:1"
             d="M 0,0 C 0.88,2.888 4.045,6.973 6.215,6.312 8.385,5.652 8.736,0.496 7.856,-2.393 6.978,-5.28 4.506,-7.086 2.336,-6.426 0.166,-5.765 -0.88,-2.888 0,0 Z" /></g><g
           transform="translate(361.4275,369.3118)"
           id="g102"><path
             id="path104"
             style="fill:#ffe7ad;fill-opacity:1;fill-rule:nonzero;stroke:none"
             d="M 0,0 C 0.88,2.888 4.045,6.974 6.215,6.313 8.385,5.652 8.736,0.496 7.856,-2.392 6.978,-5.28 4.506,-7.086 2.336,-6.425 0.167,-5.765 -0.879,-2.888 0,0" /></g><g
           transform="translate(361.4275,369.3118)"
           id="g106"><path
             id="path108"
             style="fill:none;stroke:#161621;stroke-width:2;stroke-linecap:butt;stroke-linejoin:miter;stroke-miterlimit:10;stroke-dasharray:none;stroke-opacity:1"
             d="M 0,0 C 0.88,2.888 4.045,6.974 6.215,6.313 8.385,5.652 8.736,0.496 7.856,-2.392 6.978,-5.28 4.506,-7.086 2.336,-6.425 0.167,-5.765 -0.879,-2.888 0,0 Z" /></g><g
           transform="translate(256.493,402.6985)"
           id="g110"><path
             id="path112"
             style="fill:#ffe7ad;fill-opacity:1;fill-rule:nonzero;stroke:none"
             d="m 0,0 c -2.043,2.223 -3.958,7.023 -2.288,8.558 1.67,1.534 6.292,-0.778 8.335,-3 C 8.09,3.334 8.393,0.289 6.723,-1.246 5.053,-2.781 2.043,-2.223 0,0" /></g><g
           transform="translate(256.493,402.6985)"
           id="g114"><path
             id="path116"
             style="fill:none;stroke:#161621;stroke-width:2;stroke-linecap:butt;stroke-linejoin:miter;stroke-miterlimit:10;stroke-dasharray:none;stroke-opacity:1"
             d="m 0,0 c -2.043,2.223 -3.958,7.023 -2.288,8.558 1.67,1.534 6.292,-0.778 8.335,-3 C 8.09,3.334 8.393,0.289 6.723,-1.246 5.053,-2.781 2.043,-2.223 0,0 Z" /></g><g
           transform="translate(272.9402,385.4319)"
           id="g118"><path
             id="path120"
             style="fill:#ffe7ad;fill-opacity:1;fill-rule:nonzero;stroke:none"
             d="m 0,0 c -2.043,2.223 -3.958,7.023 -2.288,8.558 1.67,1.535 6.292,-0.777 8.335,-3 C 8.09,3.335 8.392,0.289 6.723,-1.246 5.053,-2.78 2.043,-2.223 0,0" /></g><g
           transform="translate(272.9402,385.4319)"
           id="g122"><path
             id="path124"
             style="fill:none;stroke:#161621;stroke-width:2;stroke-linecap:butt;stroke-linejoin:miter;stroke-miterlimit:10;stroke-dasharray:none;stroke-opacity:1"
             d="m 0,0 c -2.043,2.223 -3.958,7.023 -2.288,8.558 1.67,1.535 6.292,-0.777 8.335,-3 C 8.09,3.335 8.392,0.289 6.723,-1.246 5.053,-2.78 2.043,-2.223 0,0 Z" /></g><g
           transform="translate(241.9431,391.8606)"
           id="g126"><path
             id="path128"
             style="fill:#ffe7ad;fill-opacity:1;fill-rule:nonzero;stroke:none"
             d="M 0,0 C 2.706,1.34 7.85,1.836 8.856,-0.196 9.863,-2.229 6.351,-6.02 3.645,-7.36 0.939,-8.699 -2.069,-8.138 -3.076,-6.105 -4.083,-4.073 -2.705,-1.34 0,0" /></g><g
           transform="translate(241.9431,391.8606)"
           id="g130"><path
             id="path132"
             style="fill:none;stroke:#161621;stroke-width:2;stroke-linecap:butt;stroke-linejoin:miter;stroke-miterlimit:10;stroke-dasharray:none;stroke-opacity:1"
             d="M 0,0 C 2.706,1.34 7.85,1.836 8.856,-0.196 9.863,-2.229 6.351,-6.02 3.645,-7.36 0.939,-8.699 -2.069,-8.138 -3.076,-6.105 -4.083,-4.073 -2.705,-1.34 0,0 Z" /></g><g
           transform="translate(231.6931,400.2947)"
           id="g134"><path
             id="path136"
             style="fill:#ffe7ad;fill-opacity:1;fill-rule:nonzero;stroke:none"
             d="M 0,0 C 2.706,1.34 7.85,1.836 8.856,-0.196 9.863,-2.229 6.351,-6.02 3.645,-7.36 0.939,-8.7 -2.069,-8.138 -3.076,-6.105 -4.083,-4.073 -2.705,-1.34 0,0" /></g><g
           transform="translate(231.6931,400.2947)"
           id="g138"><path
             id="path140"
             style="fill:none;stroke:#161621;stroke-width:2;stroke-linecap:butt;stroke-linejoin:miter;stroke-miterlimit:10;stroke-dasharray:none;stroke-opacity:1"
             d="M 0,0 C 2.706,1.34 7.85,1.836 8.856,-0.196 9.863,-2.229 6.351,-6.02 3.645,-7.36 0.939,-8.7 -2.069,-8.138 -3.076,-6.105 -4.083,-4.073 -2.705,-1.34 0,0 Z" /></g><g
           transform="translate(265.9158,370.5618)"
           id="g142"><path
             id="path144"
             style="fill:#ffe7ad;fill-opacity:1;fill-rule:nonzero;stroke:none"
             d="M 0,0 C 0.187,3.013 2.318,7.721 4.582,7.581 6.846,7.441 8.384,2.507 8.197,-0.506 8.012,-3.519 6.026,-5.849 3.763,-5.709 1.499,-5.569 -0.186,-3.014 0,0" /></g><g
           transform="translate(265.9158,370.5618)"
           id="g146"><path
             id="path148"
             style="fill:none;stroke:#161621;stroke-width:2;stroke-linecap:butt;stroke-linejoin:miter;stroke-miterlimit:10;stroke-dasharray:none;stroke-opacity:1"
             d="M 0,0 C 0.187,3.013 2.318,7.721 4.582,7.581 6.846,7.441 8.384,2.507 8.197,-0.506 8.012,-3.519 6.026,-5.849 3.763,-5.709 1.499,-5.569 -0.186,-3.014 0,0 Z" /></g><g
           transform="translate(244.1116,371.0623)"
           id="g150"><path
             id="path152"
             style="fill:#ffe7ad;fill-opacity:1;fill-rule:nonzero;stroke:none"
             d="M 0,0 C 0.186,3.013 2.318,7.721 4.582,7.582 6.845,7.442 8.383,2.508 8.197,-0.506 8.011,-3.519 6.026,-5.849 3.762,-5.709 1.498,-5.569 -0.186,-3.013 0,0" /></g><g
           transform="translate(244.1116,371.0623)"
           id="g154"><path
             id="path156"
             style="fill:none;stroke:#161621;stroke-width:2;stroke-linecap:butt;stroke-linejoin:miter;stroke-miterlimit:10;stroke-dasharray:none;stroke-opacity:1"
             d="M 0,0 C 0.186,3.013 2.318,7.721 4.582,7.582 6.845,7.442 8.383,2.508 8.197,-0.506 8.011,-3.519 6.026,-5.849 3.762,-5.709 1.498,-5.569 -0.186,-3.013 0,0 Z" /></g><g
           transform="translate(199.5716,402.5745)"
           id="g158"><path
             id="path160"
             style="fill:#ffe7ad;fill-opacity:1;fill-rule:nonzero;stroke:none"
             d="M 0,0 C 2.706,1.34 7.85,1.836 8.856,-0.196 9.863,-2.229 6.35,-6.02 3.645,-7.36 0.939,-8.7 -2.07,-8.138 -3.076,-6.106 -4.083,-4.073 -2.706,-1.34 0,0" /></g><g
           transform="translate(199.5716,402.5745)"
           id="g162"><path
             id="path164"
             style="fill:none;stroke:#161621;stroke-width:2;stroke-linecap:butt;stroke-linejoin:miter;stroke-miterlimit:10;stroke-dasharray:none;stroke-opacity:1"
             d="M 0,0 C 2.706,1.34 7.85,1.836 8.856,-0.196 9.863,-2.229 6.35,-6.02 3.645,-7.36 0.939,-8.7 -2.07,-8.138 -3.076,-6.106 -4.083,-4.073 -2.706,-1.34 0,0 Z" /></g><g
           transform="translate(159.9754,399.4173)"
           id="g166"><path
             id="path168"
             style="fill:#ffe7ad;fill-opacity:1;fill-rule:nonzero;stroke:none"
             d="M 0,0 C 2.706,1.339 7.85,1.836 8.856,-0.197 9.863,-2.229 6.35,-6.02 3.645,-7.36 0.939,-8.7 -2.069,-8.138 -3.076,-6.106 -4.083,-4.074 -2.705,-1.34 0,0" /></g><g
           transform="translate(159.9754,399.4173)"
           id="g170"><path
             id="path172"
             style="fill:none;stroke:#161621;stroke-width:2;stroke-linecap:butt;stroke-linejoin:miter;stroke-miterlimit:10;stroke-dasharray:none;stroke-opacity:1"
             d="M 0,0 C 2.706,1.339 7.85,1.836 8.856,-0.197 9.863,-2.229 6.35,-6.02 3.645,-7.36 0.939,-8.7 -2.069,-8.138 -3.076,-6.106 -4.083,-4.074 -2.705,-1.34 0,0 Z" /></g><g
           transform="translate(207.3133,378.7229)"
           id="g174"><path
             id="path176"
             style="fill:#ffe7ad;fill-opacity:1;fill-rule:nonzero;stroke:none"
             d="M 0,0 C 1.027,2.838 4.4,6.754 6.533,5.982 8.666,5.211 8.75,0.043 7.723,-2.795 6.695,-5.634 4.133,-7.31 2,-6.538 -0.132,-5.766 -1.027,-2.839 0,0" /></g><g
           transform="translate(207.3133,378.7229)"
           id="g178"><path
             id="path180"
             style="fill:none;stroke:#161621;stroke-width:2;stroke-linecap:butt;stroke-linejoin:miter;stroke-miterlimit:10;stroke-dasharray:none;stroke-opacity:1"
             d="M 0,0 C 1.027,2.838 4.4,6.754 6.533,5.982 8.666,5.211 8.75,0.043 7.723,-2.795 6.695,-5.634 4.133,-7.31 2,-6.538 -0.132,-5.766 -1.027,-2.839 0,0 Z" /></g><g
           transform="translate(167.095,360.5447)"
           id="g182"><path
             id="path184"
             style="fill:#ffe7ad;fill-opacity:1;fill-rule:nonzero;stroke:none"
             d="M 0,0 C 1.027,2.839 4.4,6.755 6.533,5.983 8.665,5.211 8.75,0.043 7.722,-2.795 6.695,-5.634 4.133,-7.31 2,-6.538 -0.132,-5.766 -1.028,-2.839 0,0" /></g><g
           transform="translate(167.095,360.5447)"
           id="g186"><path
             id="path188"
             style="fill:none;stroke:#161621;stroke-width:2;stroke-linecap:butt;stroke-linejoin:miter;stroke-miterlimit:10;stroke-dasharray:none;stroke-opacity:1"
             d="M 0,0 C 1.027,2.839 4.4,6.755 6.533,5.983 8.665,5.211 8.75,0.043 7.722,-2.795 6.695,-5.634 4.133,-7.31 2,-6.538 -0.132,-5.766 -1.028,-2.839 0,0 Z" /></g><g
           transform="translate(177.5501,384.9217)"
           id="g190"><path
             id="path192"
             style="fill:#ffe7ad;fill-opacity:1;fill-rule:nonzero;stroke:none"
             d="M 0,0 C 2.214,2.052 7.006,3.988 8.548,2.325 10.09,0.662 7.798,-3.97 5.584,-6.023 3.37,-8.075 0.326,-8.391 -1.216,-6.728 -2.758,-5.065 -2.214,-2.053 0,0" /></g><g
           transform="translate(177.5501,384.9217)"
           id="g194"><path
             id="path196"
             style="fill:none;stroke:#161621;stroke-width:2;stroke-linecap:butt;stroke-linejoin:miter;stroke-miterlimit:10;stroke-dasharray:none;stroke-opacity:1"
             d="M 0,0 C 2.214,2.052 7.006,3.988 8.548,2.325 10.09,0.662 7.798,-3.97 5.584,-6.023 3.37,-8.075 0.326,-8.391 -1.216,-6.728 -2.758,-5.065 -2.214,-2.053 0,0 Z" /></g><g
           transform="translate(126.1844,356.8509)"
           id="g198"><path
             id="path200"
             style="fill:#ffe7ad;fill-opacity:1;fill-rule:nonzero;stroke:none"
             d="M 0,0 C 2.214,2.052 7.006,3.988 8.548,2.325 10.09,0.662 7.798,-3.97 5.583,-6.023 3.37,-8.075 0.325,-8.391 -1.217,-6.728 -2.759,-5.065 -2.214,-2.053 0,0" /></g><g
           transform="translate(126.1844,356.8509)"
           id="g202"><path
             id="path204"
             style="fill:none;stroke:#161621;stroke-width:2;stroke-linecap:butt;stroke-linejoin:miter;stroke-miterlimit:10;stroke-dasharray:none;stroke-opacity:1"
             d="M 0,0 C 2.214,2.052 7.006,3.988 8.548,2.325 10.09,0.662 7.798,-3.97 5.583,-6.023 3.37,-8.075 0.325,-8.391 -1.217,-6.728 -2.759,-5.065 -2.214,-2.053 0,0 Z" /></g><g
           transform="translate(147.5555,370.406)"
           id="g206"><path
             id="path208"
             style="fill:#ffe7ad;fill-opacity:1;fill-rule:nonzero;stroke:none"
             d="M 0,0 C 2.128,2.141 6.837,4.271 8.446,2.671 10.055,1.073 7.953,-3.649 5.825,-5.79 3.696,-7.931 0.667,-8.371 -0.941,-6.772 -2.55,-5.173 -2.128,-2.141 0,0" /></g><g
           transform="translate(147.5555,370.406)"
           id="g210"><path
             id="path212"
             style="fill:none;stroke:#161621;stroke-width:2;stroke-linecap:butt;stroke-linejoin:miter;stroke-miterlimit:10;stroke-dasharray:none;stroke-opacity:1"
             d="M 0,0 C 2.128,2.141 6.837,4.271 8.446,2.671 10.055,1.073 7.953,-3.649 5.825,-5.79 3.696,-7.931 0.667,-8.371 -0.941,-6.772 -2.55,-5.173 -2.128,-2.141 0,0 Z" /></g><g
           transform="translate(320.3074,371.7522)"
           id="g214"><path
             id="path216"
             style="fill:#ffe7ad;fill-opacity:1;fill-rule:nonzero;stroke:none"
             d="M 0,0 C -0.671,2.943 -3.536,7.244 -5.747,6.74 -7.959,6.236 -8.678,1.119 -8.007,-1.825 -7.337,-4.769 -5,-6.746 -2.789,-6.242 -0.578,-5.738 0.671,-2.944 0,0" /></g><g
           transform="translate(320.3074,371.7522)"
           id="g218"><path
             id="path220"
             style="fill:none;stroke:#161621;stroke-width:2;stroke-linecap:butt;stroke-linejoin:miter;stroke-miterlimit:10;stroke-dasharray:none;stroke-opacity:1"
             d="M 0,0 C -0.671,2.943 -3.536,7.244 -5.747,6.74 -7.959,6.236 -8.678,1.119 -8.007,-1.825 -7.337,-4.769 -5,-6.746 -2.789,-6.242 -0.578,-5.738 0.671,-2.944 0,0 Z" /></g><g
           transform="translate(228.1062,362.4417)"
           id="g222"><path
             id="path224"
             style="fill:#ffe7ad;fill-opacity:1;fill-rule:nonzero;stroke:none"
             d="M 0,0 C -0.671,2.944 -3.536,7.245 -5.748,6.741 -7.959,6.237 -8.678,1.119 -8.007,-1.825 -7.336,-4.768 -5,-6.746 -2.789,-6.242 -0.578,-5.738 0.671,-2.943 0,0" /></g><g
           transform="translate(228.1062,362.4417)"
           id="g226"><path
             id="path228"
             style="fill:none;stroke:#161621;stroke-width:2;stroke-linecap:butt;stroke-linejoin:miter;stroke-miterlimit:10;stroke-dasharray:none;stroke-opacity:1"
             d="M 0,0 C -0.671,2.944 -3.536,7.245 -5.748,6.741 -7.959,6.237 -8.678,1.119 -8.007,-1.825 -7.336,-4.768 -5,-6.746 -2.789,-6.242 -0.578,-5.738 0.671,-2.943 0,0 Z" /></g><g
           transform="translate(350.6072,374.2459)"
           id="g230"><path
             id="path232"
             style="fill:#ffe7ad;fill-opacity:1;fill-rule:nonzero;stroke:none"
             d="M 0,0 C -1.945,2.309 -6.463,4.819 -8.197,3.358 -9.933,1.897 -8.227,-2.981 -6.282,-5.291 -4.337,-7.6 -1.354,-8.288 0.38,-6.826 2.115,-5.365 1.944,-2.309 0,0" /></g><g
           transform="translate(350.6072,374.2459)"
           id="g234"><path
             id="path236"
             style="fill:none;stroke:#161621;stroke-width:2;stroke-linecap:butt;stroke-linejoin:miter;stroke-miterlimit:10;stroke-dasharray:none;stroke-opacity:1"
             d="M 0,0 C -1.945,2.309 -6.463,4.819 -8.197,3.358 -9.933,1.897 -8.227,-2.981 -6.282,-5.291 -4.337,-7.6 -1.354,-8.288 0.38,-6.826 2.115,-5.365 1.944,-2.309 0,0 Z" /></g><g
           transform="translate(302.5105,405.6438)"
           id="g238"><path
             id="path240"
             style="fill:#ffe7ad;fill-opacity:1;fill-rule:nonzero;stroke:none"
             d="M 0,0 C -1.944,2.309 -6.462,4.819 -8.196,3.358 -9.932,1.897 -8.227,-2.981 -6.281,-5.291 -4.337,-7.6 -1.354,-8.287 0.381,-6.826 2.115,-5.365 1.945,-2.309 0,0" /></g><g
           transform="translate(302.5105,405.6438)"
           id="g242"><path
             id="path244"
             style="fill:none;stroke:#161621;stroke-width:2;stroke-linecap:butt;stroke-linejoin:miter;stroke-miterlimit:10;stroke-dasharray:none;stroke-opacity:1"
             d="M 0,0 C -1.944,2.309 -6.462,4.819 -8.196,3.358 -9.932,1.897 -8.227,-2.981 -6.281,-5.291 -4.337,-7.6 -1.354,-8.287 0.381,-6.826 2.115,-5.365 1.945,-2.309 0,0 Z" /></g><g
           transform="translate(378.5896,356.1536)"
           id="g246"><path
             id="path248"
             style="fill:#ffe7ad;fill-opacity:1;fill-rule:nonzero;stroke:none"
             d="M 0,0 C -1.849,2.386 -6.261,5.079 -8.053,3.689 -9.846,2.3 -8.341,-2.644 -6.491,-5.03 -4.643,-7.417 -1.69,-8.225 0.103,-6.836 1.896,-5.447 1.85,-2.386 0,0" /></g><g
           transform="translate(378.5896,356.1536)"
           id="g250"><path
             id="path252"
             style="fill:none;stroke:#161621;stroke-width:2;stroke-linecap:butt;stroke-linejoin:miter;stroke-miterlimit:10;stroke-dasharray:none;stroke-opacity:1"
             d="M 0,0 C -1.849,2.386 -6.261,5.079 -8.053,3.689 -9.846,2.3 -8.341,-2.644 -6.491,-5.03 -4.643,-7.417 -1.69,-8.225 0.103,-6.836 1.896,-5.447 1.85,-2.386 0,0 Z" /></g><g
           transform="translate(179.8216,325.8909)"
           id="g254"><path
             id="path256"
             style="fill:#a7d83b;fill-opacity:1;fill-rule:nonzero;stroke:none"
             d="M 0,0 C -22.727,19.445 -39.809,20.776 -43.92,7.725 -48.032,-5.327 -68.541,5.86 -68.541,5.86 c 0,0 -3.463,-7.858 1.731,-14.783 0,0 -14.117,9.456 -25.438,1.598 0,0 7.591,-5.46 8.79,-10.255 0,0 -13.851,-2.53 -15.316,-15.049 0,0 7.059,0.403 11.72,-0.797 0,0 -5.86,-9.858 0.533,-15.318 h 307.516 c 0,0 7.191,9.258 2.664,19.679 0,0 10.654,3.625 12.518,13.682 0,0 -6.726,-1.119 -14.118,3.009 -4.127,2.306 -6.925,-5.727 -12.784,0.921 -7.623,8.647 -27.692,28.603 -53.934,9.906 0,0 -12.39,19.039 -31.302,4.167 0,0 -5.448,9.176 -4.588,13.667 0,0 -12.194,-3.057 -18.32,-13.667 0,0 -20.908,14.96 -34.959,2.974 0,0 2.189,-0.266 2.593,-6.393 0,0 -18.509,3.463 -22.238,14.383 0,0 -10.921,-6.658 -11.187,-16.248 0,0 -20.338,15.716 -35.34,2.664" /></g><g
           transform="translate(396.5281,283.3045)"
           id="g258"><path
             id="path260"
             style="fill:#498023;fill-opacity:1;fill-rule:nonzero;stroke:none"
             d="m 0,0 c 0.249,23.963 -24.322,23.963 -24.322,23.963 l 6.105,2.394 c 0,0 -8.238,7.888 -26.083,2.601 l 1.998,3.396 -10.987,-1.904 3.995,5.1 -9.854,-3.995 v 2.596 l -4.13,-3.701 c 0,0 -12.083,10.294 -24.521,6.299 -12.437,-3.996 -18.43,5.874 -18.43,5.874 v -5.075 c 0,0 -10.198,6.193 -21.98,4.195 l 5.363,-5.194 -11.084,2.397 3.305,-2.597 -7.426,0.999 5.729,-3.796 c 0,0 -13.661,-4.794 -32.44,5.394 0,0 -3.596,-6.393 6.193,-14.983 0,0 -36.944,23.153 -58.626,6.782 0,0 -12.798,16.591 -29.926,9.2 -17.128,-7.392 -28.543,-5.394 -28.543,-5.394 0,0 10.74,-6.792 19.568,-6.393 0,0 -14.996,-2.277 -16.768,-12.725 0,0 -7.566,7.931 -17.156,9.729 0,0 6.312,-9.281 5.054,-8.336 -1.258,0.944 -12.045,0.944 -12.045,0.944 l 7.953,-3.596 -2.492,-11.986 z" /></g><g
           transform="translate(179.8216,325.8909)"
           id="g262"><path
             id="path264"
             style="fill:none;stroke:#161621;stroke-width:4;stroke-linecap:butt;stroke-linejoin:miter;stroke-miterlimit:10;stroke-dasharray:none;stroke-opacity:1"
             d="M 0,0 C -22.727,19.445 -39.809,20.776 -43.92,7.725 -48.032,-5.327 -68.541,5.86 -68.541,5.86 c 0,0 -3.463,-7.858 1.731,-14.783 0,0 -14.117,9.456 -25.438,1.598 0,0 7.591,-5.46 8.79,-10.255 0,0 -13.851,-2.53 -15.316,-15.049 0,0 7.059,0.403 11.72,-0.797 0,0 -5.86,-9.858 0.533,-15.318 h 307.516 c 0,0 7.191,9.258 2.664,19.679 0,0 10.654,3.625 12.518,13.682 0,0 -6.726,-1.119 -14.118,3.009 -4.127,2.306 -6.925,-5.727 -12.784,0.921 -7.623,8.647 -27.692,28.603 -53.934,9.906 0,0 -12.39,19.039 -31.302,4.167 0,0 -5.448,9.176 -4.588,13.667 0,0 -12.194,-3.057 -18.32,-13.667 0,0 -20.908,14.96 -34.959,2.974 0,0 2.189,-0.266 2.593,-6.393 0,0 -18.509,3.463 -22.238,14.383 0,0 -10.921,-6.658 -11.187,-16.248 0,0 -20.338,15.716 -35.34,2.664 z" /></g><g
           transform="translate(249.951,301.513)"
           id="g266"><path
             id="path268"
             style="fill:#ff1c1c;fill-opacity:1;fill-rule:nonzero;stroke:none"
             d="m 0,0 c -1.979,11.939 -38.624,15.81 -81.848,8.646 -43.225,-7.164 -76.661,-22.649 -74.683,-34.588 l 2.49,-15.018 21.977,3.642 c 14.906,-1.71 35.282,-0.933 57.381,2.73 22.1,3.662 41.637,9.5 55.194,15.927 l 21.978,3.642 z" /></g><g
           transform="translate(173.7532,266.6844)"
           id="g270"><path
             id="path272"
             style="fill:#ff6739;fill-opacity:1;fill-rule:nonzero;stroke:none"
             d="M 0,0 -8.525,42.978 C -32.793,38.706 -53.724,31.845 -66.643,24.554 l 6.444,-27.762 4.333,0.719 C -41.303,-4.16 -21.512,-3.449 0,0" /></g><g
           transform="translate(212.3557,313.7205)"
           id="g274"><path
             id="path276"
             style="fill:#ff6739;fill-opacity:1;fill-rule:nonzero;stroke:none"
             d="m 0,0 c -8.443,0.166 -17.917,-0.27 -28.003,-1.346 l 4.336,-42.891 c 8.971,1.932 17.337,4.202 24.829,6.69 z" /></g><g
           transform="translate(249.951,301.513)"
           id="g278"><path
             id="path280"
             style="fill:none;stroke:#161621;stroke-width:4;stroke-linecap:butt;stroke-linejoin:miter;stroke-miterlimit:10;stroke-dasharray:none;stroke-opacity:1"
             d="m 0,0 c -1.979,11.939 -38.624,15.81 -81.848,8.646 -43.225,-7.164 -76.661,-22.649 -74.683,-34.588 l 2.49,-15.018 21.977,3.642 c 14.906,-1.71 35.282,-0.933 57.381,2.73 22.1,3.662 41.637,9.5 55.194,15.927 l 21.978,3.642 z" /></g><g
           transform="translate(222.7737,298.3513)"
           id="g282"><path
             id="path284"
             style="fill:#a40d38;fill-opacity:1;fill-rule:nonzero;stroke:none"
             d="m 0,0 c -14.285,1.02 -32.555,0.042 -52.182,-3.21 -15.735,-2.608 -30.173,-6.319 -42.078,-10.56 -20.797,-7.409 -33.863,-16.436 -32.604,-24.029 1.978,-11.938 38.623,-15.809 81.847,-8.646 43.225,7.163 76.662,22.649 74.684,34.588 C 28.585,-5.339 17.174,-1.226 0,0" /></g><g
           transform="translate(210.5071,298.7356)"
           id="g286"><path
             id="path288"
             style="fill:#161621;fill-opacity:1;fill-rule:nonzero;stroke:none"
             d="m 0,0 c 5.524,0.779 11.113,1.006 16.715,0.735 5.6,-0.288 11.234,-1.042 16.754,-2.97 2.737,-1.006 5.516,-2.264 7.906,-4.614 1.167,-1.173 2.225,-2.726 2.632,-4.579 0.411,-1.843 0.154,-3.761 -0.467,-5.355 -1.29,-3.208 -3.492,-5.407 -5.688,-7.367 -2.235,-1.94 -4.626,-3.561 -7.071,-5.044 -4.898,-2.952 -10.028,-5.324 -15.232,-7.442 -5.205,-2.124 -10.523,-3.898 -15.875,-5.516 -10.714,-3.212 -21.62,-5.678 -32.628,-7.498 -11.016,-1.774 -22.135,-2.95 -33.32,-3.336 -5.591,-0.205 -11.204,-0.147 -16.819,0.207 -5.614,0.372 -11.24,1.023 -16.834,2.323 -2.794,0.669 -5.585,1.494 -8.32,2.746 -0.678,0.346 -1.366,0.626 -2.032,1.04 l -1.002,0.585 -0.979,0.685 c -1.275,0.962 -2.562,2.077 -3.49,3.676 -0.931,1.562 -1.446,3.553 -1.233,5.416 0.207,1.862 0.928,3.49 1.791,4.859 1.758,2.746 4.079,4.66 6.395,6.416 2.335,1.742 4.832,3.148 7.353,4.437 2.512,1.311 5.123,2.38 7.733,3.397 5.252,1.963 10.62,3.514 16.101,4.544 -5.016,-2.431 -10.018,-4.753 -14.85,-7.323 -4.824,-2.544 -9.557,-5.283 -13.676,-8.535 -2.033,-1.62 -3.909,-3.451 -5.123,-5.394 -0.594,-0.97 -0.961,-1.958 -1.048,-2.853 -0.075,-0.894 0.162,-1.701 0.632,-2.507 0.996,-1.627 3.159,-2.983 5.429,-3.994 2.309,-1.021 4.855,-1.747 7.441,-2.324 10.438,-2.227 21.467,-2.343 32.343,-2.019 10.912,0.417 21.817,1.608 32.62,3.389 10.807,1.752 21.539,4.034 32.029,7.092 5.244,1.524 10.427,3.243 15.495,5.204 5.065,1.954 10.04,4.158 14.661,6.834 2.304,1.339 4.526,2.799 6.496,4.45 1.947,1.635 3.731,3.525 4.528,5.485 0.782,1.943 0.475,3.669 -1.096,5.276 -1.521,1.604 -3.87,2.791 -6.265,3.743 -4.873,1.895 -10.243,2.938 -15.61,3.867 C 11.003,-1.373 5.527,-0.744 0,0" /></g><g
           transform="translate(404.4959,265.5984)"
           id="g290"><path
             id="path292"
             style="fill:#ff1c1c;fill-opacity:1;fill-rule:nonzero;stroke:none"
             d="m 0,0 c 2.858,11.759 -29.337,29.683 -71.91,40.034 -42.574,10.352 -79.405,9.21 -82.264,-2.549 l -3.597,-14.792 21.647,-5.263 c 13.043,-7.415 32.094,-14.687 53.859,-19.979 21.767,-5.293 42.03,-7.579 57.021,-6.98 l 21.647,-5.263 z" /></g><g
           transform="translate(320.7439,263.4221)"
           id="g294"><path
             id="path296"
             style="fill:#ff6739;fill-opacity:1;fill-rule:nonzero;stroke:none"
             d="m 0,0 9.001,42.88 c -24,5.582 -45.945,7.474 -60.688,5.829 l -4.953,-28.065 4.268,-1.038 C -39.629,12.361 -21.143,5.258 0,0" /></g><g
           transform="translate(374.6931,291.5647)"
           id="g298"><path
             id="path300"
             style="fill:#ff6739;fill-opacity:1;fill-rule:nonzero;stroke:none"
             d="m 0,0 c -7.702,3.461 -16.589,6.774 -26.29,9.738 l -12.821,-41.16 c 9.009,-1.738 17.596,-2.929 25.464,-3.577 z" /></g><g
           transform="translate(404.4959,265.5984)"
           id="g302"><path
             id="path304"
             style="fill:none;stroke:#161621;stroke-width:4;stroke-linecap:butt;stroke-linejoin:miter;stroke-miterlimit:10;stroke-dasharray:none;stroke-opacity:1"
             d="m 0,0 c 2.858,11.759 -29.337,29.683 -71.91,40.034 -42.574,10.352 -79.405,9.21 -82.264,-2.549 l -3.597,-14.792 21.647,-5.263 c 13.043,-7.415 32.094,-14.687 53.859,-19.979 21.767,-5.293 42.03,-7.579 57.021,-6.98 l 21.647,-5.263 z" /></g><g
           transform="translate(378.2537,273.3421)"
           id="g306"><path
             id="path308"
             style="fill:#a40d38;fill-opacity:1;fill-rule:nonzero;stroke:none"
             d="m 0,0 c -12.741,6.537 -29.934,12.798 -49.265,17.499 -15.498,3.768 -30.235,6.013 -42.849,6.777 -22.038,1.336 -37.596,-1.848 -39.415,-9.327 -2.859,-11.759 29.337,-29.683 71.911,-40.034 42.573,-10.352 79.404,-9.21 82.264,2.549 C 24.206,-16.116 15.319,-7.859 0,0" /></g><g
           transform="translate(367.1199,278.5032)"
           id="g310"><path
             id="path312"
             style="fill:#161621;fill-opacity:1;fill-rule:nonzero;stroke:none"
             d="m 0,0 c 5.388,-1.449 10.618,-3.43 15.665,-5.875 5.04,-2.46 9.927,-5.362 14.25,-9.299 2.123,-1.999 4.188,-4.245 5.464,-7.343 0.614,-1.537 0.979,-3.381 0.628,-5.245 -0.345,-1.857 -1.333,-3.52 -2.529,-4.743 -2.444,-2.447 -5.332,-3.607 -8.121,-4.549 -2.816,-0.908 -5.652,-1.463 -8.482,-1.868 -5.663,-0.796 -11.312,-0.968 -16.93,-0.877 -5.622,0.086 -11.209,0.538 -16.766,1.147 -11.116,1.244 -22.116,3.25 -32.956,5.891 -10.83,2.685 -21.521,5.962 -31.962,9.99 -5.225,2.003 -10.365,4.256 -15.392,6.783 -5.019,2.543 -9.94,5.346 -14.577,8.735 -2.308,1.711 -4.553,3.564 -6.578,5.787 -0.489,0.584 -1.012,1.111 -1.462,1.753 l -0.693,0.931 -0.632,1.014 c -0.796,1.385 -1.542,2.914 -1.77,4.751 -0.244,1.801 0.063,3.834 0.989,5.465 0.92,1.632 2.221,2.846 3.552,3.769 2.694,1.837 5.579,2.688 8.398,3.396 2.831,0.688 5.678,1.002 8.504,1.199 2.825,0.222 5.645,0.182 8.445,0.095 5.601,-0.253 11.148,-0.929 16.594,-2.13 -5.568,-0.272 -11.079,-0.447 -16.532,-0.917 -5.435,-0.45 -10.863,-1.115 -15.926,-2.492 -2.506,-0.693 -4.95,-1.643 -6.828,-2.955 -0.926,-0.66 -1.652,-1.425 -2.082,-2.213 -0.419,-0.794 -0.519,-1.63 -0.402,-2.555 0.279,-1.887 1.737,-3.982 3.43,-5.802 1.723,-1.844 3.782,-3.51 5.934,-5.054 8.73,-6.141 18.831,-10.57 28.964,-14.534 10.201,-3.894 20.701,-7.072 31.338,-9.668 10.629,-2.625 21.397,-4.731 32.246,-6.029 5.422,-0.653 10.864,-1.104 16.295,-1.286 5.426,-0.188 10.866,-0.11 16.167,0.541 2.645,0.329 5.261,0.801 7.721,1.547 2.432,0.742 4.813,1.782 6.314,3.272 1.482,1.482 1.875,3.189 1.061,5.284 -0.772,2.072 -2.467,4.084 -4.297,5.899 -3.74,3.653 -8.272,6.717 -12.846,9.676 C 9.584,-5.576 4.793,-2.851 0,0" /></g><g
           transform="translate(380.5965,272.8069)"
           id="g314"><path
             id="path316"
             style="fill:#161621;fill-opacity:1;fill-rule:nonzero;stroke:none"
             d="M 0,0 5.094,9.085 2.547,-1.298 8.29,7.791 4.894,-2.697 9.553,-5.756 14.233,4.34 11.387,-7.491 14.233,-10.266 20.042,2.35 21.424,0.715 15.932,-12.621 Z" /></g><g
           transform="translate(279.8113,312.3118)"
           id="g318"><path
             id="path320"
             style="fill:#161621;fill-opacity:1;fill-rule:nonzero;stroke:none"
             d="M 0,0 -1.599,-13.984 H -3.546 L -1.773,0 Z" /></g><g
           transform="translate(268.6736,311.7127)"
           id="g322"><path
             id="path324"
             style="fill:#161621;fill-opacity:1;fill-rule:nonzero;stroke:none"
             d="m 0,0 -2.397,-13.797 1.998,0.412 2.697,13.735 z" /></g><g
           transform="translate(396.5066,234.3445)"
           id="g326"><path
             id="path328"
             style="fill:#a24521;fill-opacity:1;fill-rule:nonzero;stroke:none"
             d="m 0,0 c 1.35,21.603 -60.958,43.076 -139.169,47.963 -78.21,4.887 -142.706,-8.664 -144.056,-30.266 l -1.698,-27.175 39.766,-2.484 c 25.291,-8.971 61.115,-15.806 101.1,-18.304 39.987,-2.499 76.382,-0.175 102.592,5.577 l 39.767,-2.485 z" /></g><g
           transform="translate(195.8069,261.9192)"
           id="g330"><path
             id="path332"
             style="fill:#ec5627;fill-opacity:1;fill-rule:nonzero;stroke:none"
             d="m 0,0 c -3.396,2.597 -0.899,3.696 -7.791,3.696 -6.892,0 -9.747,3.895 -14.263,4.395 -4.516,0.499 -4.915,2.261 -9.909,0.881 -4.995,-1.381 -7.792,-0.781 -9.59,-0.981 -1.798,-0.199 -5.693,0 -7.891,-1.998 -2.197,-1.997 -6.992,-1.897 -9.389,-2.597 -2.397,-0.699 -5.194,0.2 -7.192,-2.697 -1.997,-2.896 -2.796,-2.397 -5.494,-4.494 -2.696,-2.098 -3.196,-4.76 -3.196,-5.976 0,-1.216 -1.199,-2.814 1.898,-2.814 3.096,0 4.295,0.599 6.293,1.897 1.998,1.299 4.894,-1.263 8.59,0.917 3.696,2.18 4.395,4.078 6.892,4.977 2.498,0.898 2.098,0 8.091,0.1 5.993,0.099 3.21,0.599 8.147,2.097 4.938,1.498 3.839,-1.198 8.634,-0.1 4.795,1.099 6.193,2.76 9.289,1.33 3.097,-1.429 3.297,-3.727 6.293,-2.029 2.997,1.698 3.896,1.698 6.892,1.199 C -0.699,-2.697 1.111,-0.994 0,0" /></g><g
           transform="translate(396.5066,234.3445)"
           id="g334"><path
             id="path336"
             style="fill:none;stroke:#161621;stroke-width:4;stroke-linecap:butt;stroke-linejoin:miter;stroke-miterlimit:10;stroke-dasharray:none;stroke-opacity:1"
             d="m 0,0 c 1.35,21.603 -60.958,43.076 -139.169,47.963 -78.21,4.887 -142.706,-8.664 -144.056,-30.266 l -1.698,-27.175 39.766,-2.484 c 25.291,-8.971 61.115,-15.806 101.1,-18.304 39.987,-2.499 76.382,-0.175 102.592,5.577 l 39.767,-2.485 z" /></g><g
           transform="translate(347.8719,239.7576)"
           id="g338"><path
             id="path340"
             style="fill:#693728;fill-opacity:1;fill-rule:nonzero;stroke:none"
             d="m 0,0 c -24.484,7.518 -56.719,13.157 -92.232,15.375 -28.471,1.779 -55.124,1.115 -77.576,-1.492 -39.224,-4.553 -65.622,-15.035 -66.481,-28.774 -1.349,-21.601 60.959,-43.075 139.169,-47.962 78.211,-4.886 142.707,8.664 144.057,30.266 C 47.674,-20.794 29.437,-9.039 0,0" /></g><g
           transform="translate(326.6482,245.3572)"
           id="g342"><path
             id="path344"
             style="fill:#161621;fill-opacity:1;fill-rule:nonzero;stroke:none"
             d="m 0,0 c 9.809,-1.448 19.521,-3.617 29.04,-6.561 9.498,-2.979 18.887,-6.645 27.487,-12.154 2.145,-1.385 4.214,-2.922 6.161,-4.664 1.939,-1.748 3.761,-3.721 5.208,-6.076 1.439,-2.331 2.511,-5.148 2.469,-8.141 0.037,-2.984 -1.084,-5.882 -2.675,-8.169 -1.584,-2.325 -3.579,-4.19 -5.67,-5.787 -2.1,-1.599 -4.32,-2.957 -6.593,-4.149 -4.551,-2.387 -9.29,-4.208 -14.079,-5.771 -9.597,-3.076 -19.413,-5.105 -29.267,-6.661 -9.861,-1.536 -19.782,-2.506 -29.712,-3.146 -19.865,-1.238 -39.78,-1.104 -59.614,0.156 -19.83,1.318 -39.606,3.69 -59.149,7.495 -9.772,1.898 -19.482,4.179 -29.056,7.019 -9.567,2.85 -19.038,6.174 -28.121,10.606 -4.529,2.235 -8.973,4.741 -13.097,7.886 -2.051,1.585 -4.044,3.302 -5.806,5.344 -1.753,2.027 -3.352,4.364 -4.252,7.15 -0.448,1.384 -0.711,2.868 -0.715,4.368 -0.017,1.502 0.278,2.994 0.728,4.4 0.976,2.8 2.694,5.133 4.609,7.044 1.932,1.913 4.079,3.47 6.301,4.808 2.223,1.342 4.518,2.487 6.844,3.525 4.653,2.072 9.468,3.591 14.308,4.884 4.836,1.32 9.744,2.273 14.653,3.102 9.835,1.58 19.742,2.456 29.654,2.628 -9.774,-1.643 -19.497,-3.351 -29.059,-5.616 -4.787,-1.094 -9.513,-2.403 -14.172,-3.834 -4.658,-1.444 -9.214,-3.151 -13.573,-5.152 -4.315,-2.034 -8.498,-4.465 -11.675,-7.624 -1.563,-1.582 -2.792,-3.37 -3.435,-5.255 -0.623,-1.888 -0.601,-3.87 0.053,-5.795 0.631,-1.93 1.87,-3.776 3.354,-5.458 1.482,-1.694 3.263,-3.214 5.131,-4.632 3.764,-2.827 7.989,-5.179 12.336,-7.279 8.73,-4.174 18.007,-7.358 27.401,-10.071 4.703,-1.351 9.449,-2.57 14.224,-3.684 4.77,-1.129 9.57,-2.151 14.391,-3.078 19.284,-3.713 38.855,-6.021 58.478,-7.285 19.623,-1.281 39.327,-1.555 58.94,-0.416 9.804,0.571 19.58,1.517 29.272,2.926 9.682,1.429 19.308,3.327 28.577,6.198 4.62,1.455 9.157,3.156 13.387,5.322 2.114,1.081 4.136,2.298 5.984,3.676 1.843,1.372 3.508,2.938 4.725,4.692 1.232,1.747 1.97,3.685 1.962,5.666 0.06,1.981 -0.642,3.99 -1.765,5.858 -2.273,3.771 -6.048,6.849 -9.965,9.522 -7.978,5.331 -17.045,9.22 -26.172,12.772 C 18.878,-5.911 9.469,-2.934 0,0" /></g><g
           transform="translate(171.2351,238.1375)"
           id="g346"><path
             id="path348"
             style="fill:#a7d83b;fill-opacity:1;fill-rule:nonzero;stroke:none"
             d="m 0,0 c -26.77,4.994 -34.96,-10.787 -34.96,-10.787 0,0 -18.454,9.788 -28.805,-8.391 0,0 -22.137,-8.591 -15.545,-23.773 0,0 -0.979,-8.59 -10.877,-11.587 0,0 6.892,-6.393 14.778,-6.792 7.886,-0.399 15.757,5.594 15.757,5.594 h 273.721 c 0,0 20.863,-11.387 33.648,4.395 0,0 -12.379,8.998 -16.078,16.285 0,0 3.335,28.732 -19.282,30.461 0,0 -18.579,7.958 -24.372,14.767 0,0 -10.111,-0.939 -11.348,-8.552 0,0 -14.77,19.903 -33.874,14.735 -19.105,-5.167 -69.647,3.416 -69.647,3.416 0,0 -29.166,8.796 -37.557,-8.184 C 35.559,11.587 9.589,23.973 0,0" /></g><g
           transform="translate(396.5301,198.0252)"
           id="g350"><path
             id="path352"
             style="fill:#498023;fill-opacity:1;fill-rule:nonzero;stroke:none"
             d="m 0,0 c -2.55,11.62 2.201,23.16 -15.636,27.625 l -11.551,9.699 1.864,-4.394 -9.057,6.126 1.679,-3.729 -6.894,3.41 2.285,-7.406 -12.785,3.73 -15.506,11.273 -4.471,-3.732 -10.122,4.416 10.058,9.566 c -3.817,0.924 -7.989,1.076 -12.396,-0.116 -19.105,-5.168 -69.647,3.415 -69.647,3.415 0,0 -19.065,5.745 -30.801,-1.029 l 8.159,-13.572 c -0.32,0.462 -1.887,2.014 -6.991,-1.698 0,0 -10.521,4.161 -19.444,-0.982 0,0 7.325,-1.107 6.925,-1.46 -0.399,-0.355 -12.918,-0.621 -12.918,-0.621 l 6.856,-2.531 -15.779,-1.465 9.189,-1.464 c 0,0 -20.51,0.932 -32.763,-5.328 -12.252,-6.259 -25.304,-5.45 -25.304,-5.45 l 3.063,-2.658 -11.187,1.183 4.129,-4.814 c 0,0 -15.311,0.951 -20.374,-11.302 -4.759,-11.514 -4.579,-23.38 -20.348,-25.099 2.54,-1.385 5.708,-2.641 9.063,-2.811 7.886,-0.399 15.757,5.594 15.757,5.594 h 273.721 c 0,0 17.074,-9.316 29.796,0.592 C 9.933,-10.995 1.235,-5.631 0,0" /></g><g
           transform="translate(171.2351,238.1375)"
           id="g354"><path
             id="path356"
             style="fill:none;stroke:#161621;stroke-width:4;stroke-linecap:butt;stroke-linejoin:miter;stroke-miterlimit:10;stroke-dasharray:none;stroke-opacity:1"
             d="m 0,0 c -26.77,4.994 -34.96,-10.787 -34.96,-10.787 0,0 -18.454,9.788 -28.805,-8.391 0,0 -22.137,-8.591 -15.545,-23.773 0,0 -0.979,-8.59 -10.877,-11.587 0,0 6.892,-6.393 14.778,-6.792 7.886,-0.399 15.757,5.594 15.757,5.594 h 273.721 c 0,0 20.863,-11.387 33.648,4.395 0,0 -12.379,8.998 -16.078,16.285 0,0 3.335,28.732 -19.282,30.461 0,0 -18.579,7.958 -24.372,14.767 0,0 -10.111,-0.939 -11.348,-8.552 0,0 -14.77,19.903 -33.874,14.735 -19.105,-5.167 -69.647,3.416 -69.647,3.416 0,0 -29.166,8.796 -37.557,-8.184 C 35.559,11.587 9.589,23.973 0,0 Z" /></g><g
           transform="translate(387.6111,211.0115)"
           id="g358"><path
             id="path360"
             style="fill:#a24521;fill-opacity:1;fill-rule:nonzero;stroke:none"
             d="m 0,0 c -1.981,21.554 -66.847,33.212 -144.88,26.04 -78.034,-7.173 -139.687,-30.459 -137.706,-52.013 l 2.492,-27.113 39.677,3.648 c 26.367,-4.984 62.815,-6.242 102.711,-2.575 39.895,3.667 75.504,11.547 100.52,21.253 l 39.678,3.648 z" /></g><g
           transform="translate(376.492,217.1707)"
           id="g362"><path
             id="path364"
             style="fill:#ec5627;fill-opacity:1;fill-rule:nonzero;stroke:none"
             d="m 0,0 c -4.286,3.196 -7.855,5.682 -12.663,5.138 -4.809,-0.543 -9.004,2.453 -14.597,3.851 -5.594,1.399 -10.588,2.598 -15.383,3.397 -4.795,0.799 -11.986,2.596 -18.579,2.996 -6.591,0.399 -6.845,-1.399 -12.712,0 -5.866,1.398 -9.862,1.398 -9.862,1.398 0,0 -4.994,-1.997 -5.993,-2.797 -0.999,-0.798 -7.791,-6.792 -6.792,-7.59 0.999,-0.799 6.992,-7.555 11.387,-5.077 4.395,2.48 9.067,-0.517 13.124,0.881 4.056,1.399 8.104,-2.36 14.371,-0.881 6.266,1.481 8.464,-0.281 13.858,0 5.394,0.282 5.194,-3.914 12.985,-4.313 7.791,-0.399 14.218,-3.402 16.998,-3 2.779,0.403 8.772,-3.192 11.37,-2.793 2.596,0.399 4.992,-4.795 6.89,-2.398 1.9,2.398 1.103,5.793 0.103,7.392 C 3.505,-2.197 0,0 0,0" /></g><g
           transform="translate(246.8152,221.7654)"
           id="g366"><path
             id="path368"
             style="fill:#ec5627;fill-opacity:1;fill-rule:nonzero;stroke:none"
             d="m 0,0 c 2.584,3.23 -2.264,8.79 -7.857,8.523 -5.594,-0.266 -4.928,-2.929 -11.055,-1.598 -6.126,1.332 -8.656,1.332 -10.654,0 -1.998,-1.331 -8.391,0.276 -8.79,-2.658 -0.4,-2.935 -1.199,-4.103 0.533,-6.382 1.731,-2.281 2.131,-4.278 5.46,-2.813 3.33,1.465 2.797,4.027 7.725,2.813 4.927,-1.215 7.058,-2.281 8.923,-0.549 1.864,1.731 3.196,2.265 5.86,1.865 2.663,-0.4 3.995,-0.8 5.061,-0.533 1.065,0.267 3.729,0 4.794,1.332" /></g><g
           transform="translate(202.7322,225.2283)"
           id="g370"><path
             id="path372"
             style="fill:#ec5627;fill-opacity:1;fill-rule:nonzero;stroke:none"
             d="m 0,0 c -3.196,-0.666 -3.063,-1.823 -6.393,-1.911 -3.329,-0.087 -6.527,-0.332 -11.987,-1.009 -5.459,-0.677 -3.486,-0.809 -10.599,-1.608 -7.113,-0.799 -8.179,-0.134 -10.31,-3.596 -2.13,-3.463 -3.063,-7.592 -1.997,-8.657 1.065,-1.066 0,-4.795 3.995,-4.795 3.996,0 6.812,0.196 8.733,1.696 1.922,1.5 4.053,1.901 6.983,1.767 2.929,-0.133 2.264,-3.995 5.993,-0.267 3.729,3.73 5.993,3.196 8.523,3.196 2.531,0 2.131,-1.204 4.529,1.129 2.397,2.334 2.797,1.857 3.063,4.027 0.266,2.17 -0.932,0.971 0,3.901 C 1.465,-3.196 0,0 0,0" /></g><g
           transform="translate(387.6111,211.0115)"
           id="g374"><path
             id="path376"
             style="fill:none;stroke:#161621;stroke-width:4;stroke-linecap:butt;stroke-linejoin:miter;stroke-miterlimit:10;stroke-dasharray:none;stroke-opacity:1"
             d="m 0,0 c -1.981,21.554 -66.847,33.212 -144.88,26.04 -78.034,-7.173 -139.687,-30.459 -137.706,-52.013 l 2.492,-27.113 39.677,3.648 c 26.367,-4.984 62.815,-6.242 102.711,-2.575 39.895,3.667 75.504,11.547 100.52,21.253 l 39.678,3.648 z" /></g><g
           transform="translate(338.7215,208.8972)"
           id="g378"><path
             id="path380"
             style="fill:#693728;fill-opacity:1;fill-rule:nonzero;stroke:none"
             d="m 0,0 c -25.348,3.672 -58.065,4.298 -93.499,1.041 -28.406,-2.61 -54.643,-7.357 -76.428,-13.378 -38.06,-10.518 -62.538,-24.927 -61.278,-38.635 1.981,-21.552 66.846,-33.212 144.881,-26.039 78.033,7.172 139.686,30.459 137.706,52.013 C 50.3,-13.231 30.477,-4.414 0,0" /></g><g
           transform="translate(316.8904,211.1736)"
           id="g382"><path
             id="path384"
             style="fill:#161621;fill-opacity:1;fill-rule:nonzero;stroke:none"
             d="m 0,0 c 9.914,0.074 19.844,-0.579 29.702,-2.026 9.843,-1.487 19.684,-3.669 29.027,-7.792 2.333,-1.04 4.613,-2.242 6.804,-3.664 2.184,-1.429 4.287,-3.099 6.079,-5.205 1.779,-2.084 3.271,-4.701 3.689,-7.666 0.494,-2.943 -0.169,-5.978 -1.39,-8.482 -1.209,-2.54 -2.893,-4.69 -4.716,-6.59 -1.83,-1.902 -3.813,-3.584 -5.878,-5.111 -4.129,-3.056 -8.534,-5.583 -13.026,-7.862 -9.012,-4.512 -18.4,-8.024 -27.898,-11.074 -9.509,-3.031 -19.164,-5.511 -28.878,-7.668 -19.439,-4.27 -39.139,-7.194 -58.932,-8.993 -19.797,-1.74 -39.702,-2.43 -59.599,-1.671 -9.946,0.376 -19.892,1.141 -29.788,2.478 -9.891,1.348 -19.76,3.18 -29.416,6.166 -4.818,1.514 -9.594,3.307 -14.152,5.782 -2.27,1.252 -4.502,2.643 -6.557,4.39 -2.043,1.734 -3.982,3.798 -5.299,6.414 -0.655,1.298 -1.143,2.724 -1.377,4.206 -0.246,1.482 -0.185,3.001 0.044,4.459 0.536,2.917 1.875,5.486 3.475,7.669 1.615,2.185 3.497,4.054 5.488,5.718 1.991,1.666 4.083,3.15 6.222,4.534 4.28,2.759 8.805,5.001 13.389,7.02 4.576,2.046 9.279,3.741 14.004,5.314 9.476,3.07 19.131,5.456 28.899,7.147 -9.406,-3.123 -18.752,-6.303 -27.853,-10.009 -4.562,-1.816 -9.031,-3.834 -13.416,-5.963 -4.381,-2.141 -8.621,-4.527 -12.622,-7.173 -3.952,-2.672 -7.712,-5.716 -10.366,-9.325 -1.302,-1.803 -2.242,-3.759 -2.588,-5.72 -0.326,-1.962 0,-3.916 0.942,-5.718 0.919,-1.811 2.426,-3.445 4.152,-4.879 1.723,-1.447 3.717,-2.676 5.78,-3.791 4.153,-2.215 8.689,-3.892 13.307,-5.299 9.268,-2.785 18.923,-4.508 28.621,-5.748 4.855,-0.612 9.732,-1.09 14.621,-1.456 4.887,-0.385 9.787,-0.657 14.693,-0.834 19.625,-0.71 39.319,0.012 58.904,1.774 19.588,1.746 39.1,4.499 58.305,8.633 9.6,2.07 19.116,4.504 28.477,7.384 9.348,2.897 18.568,6.249 27.287,10.509 4.342,2.146 8.565,4.523 12.412,7.313 1.924,1.393 3.735,2.906 5.348,4.551 1.612,1.639 3.018,3.441 3.951,5.362 0.948,1.915 1.38,3.943 1.068,5.9 -0.245,1.967 -1.246,3.844 -2.641,5.517 -2.826,3.377 -7.029,5.839 -11.311,7.88 -8.7,4.044 -18.257,6.495 -27.82,8.605 C 19.562,-2.944 9.807,-1.444 0,0" /></g><g
           transform="translate(355.1375,186.1971)"
           id="g386"><path
             id="path388"
             style="fill:#4a261c;fill-opacity:1;fill-rule:nonzero;stroke:none"
             d="m 0,0 c 0,-8.685 -17.183,-15.725 -38.379,-15.725 -21.196,0 -38.379,7.04 -38.379,15.725 0,8.685 17.183,15.725 38.379,15.725 C -17.183,15.725 0,8.685 0,0" /></g><g
           transform="translate(362.284,195.0662)"
           id="g390"><path
             id="path392"
             style="fill:#4a261c;fill-opacity:1;fill-rule:nonzero;stroke:none"
             d="m 0,0 c 0,-2.756 -4.89,-4.99 -10.921,-4.99 -6.032,0 -10.921,2.234 -10.921,4.99 0,2.756 4.889,4.99 10.921,4.99 C -4.89,4.99 0,2.756 0,0" /></g><g
           transform="translate(366.0125,188.9363)"
           id="g394"><path
             id="path396"
             style="fill:#4a261c;fill-opacity:1;fill-rule:nonzero;stroke:none"
             d="m 0,0 c 0,-2.023 -3.577,-3.663 -7.99,-3.663 -4.414,0 -7.991,1.64 -7.991,3.663 0,2.022 3.577,3.662 7.991,3.662 C -3.577,3.662 0,2.022 0,0" /></g><g
           transform="translate(373.4705,188.6072)"
           id="g398"><path
             id="path400"
             style="fill:#4a261c;fill-opacity:1;fill-rule:nonzero;stroke:none"
             d="m 0,0 c 0,-0.812 -0.895,-1.469 -1.997,-1.469 -1.104,0 -1.998,0.657 -1.998,1.469 0,0.811 0.894,1.469 1.998,1.469 C -0.895,1.469 0,0.811 0,0" /></g><g
           transform="translate(378.7976,184.4744)"
           id="g402"><path
             id="path404"
             style="fill:#4a261c;fill-opacity:1;fill-rule:nonzero;stroke:none"
             d="m 0,0 c 0,-0.441 -0.715,-0.799 -1.598,-0.799 -0.882,0 -1.598,0.358 -1.598,0.799 0,0.441 0.716,0.799 1.598,0.799 C -0.715,0.799 0,0.441 0,0" /></g><g
           transform="translate(374.6931,194.4314)"
           id="g406"><path
             id="path408"
             style="fill:#4a261c;fill-opacity:1;fill-rule:nonzero;stroke:none"
             d="m 0,0 c 0,-0.351 -0.84,-0.635 -1.876,-0.635 -1.037,0 -1.877,0.284 -1.877,0.635 0,0.351 0.84,0.635 1.877,0.635 C -0.84,0.635 0,0.351 0,0" /></g><g
           transform="translate(339.7762,204.5008)"
           id="g410"><path
             id="path412"
             style="fill:#4a261c;fill-opacity:1;fill-rule:nonzero;stroke:none"
             d="m 0,0 c 0,-0.469 -0.745,-0.849 -1.665,-0.849 -0.919,0 -1.665,0.38 -1.665,0.849 0,0.468 0.746,0.848 1.665,0.848 C -0.745,0.848 0,0.468 0,0" /></g><g
           transform="translate(305.1492,191.5154)"
           id="g414"><path
             id="path416"
             style="fill:#4a261c;fill-opacity:1;fill-rule:nonzero;stroke:none"
             d="m 0,0 c 0,-7.64 -15.431,-13.833 -34.465,-13.833 -19.033,0 -34.464,6.193 -34.464,13.833 0,7.64 15.431,13.833 34.464,13.833 C -15.431,13.833 0,7.64 0,0" /></g><g
           transform="translate(311.2254,204.6512)"
           id="g418"><path
             id="path420"
             style="fill:#4a261c;fill-opacity:1;fill-rule:nonzero;stroke:none"
             d="m 0,0 c 0,-1.949 -3.597,-3.529 -8.032,-3.529 -4.437,0 -8.033,1.58 -8.033,3.529 0,1.949 3.596,3.529 8.033,3.529 C -3.597,3.529 0,1.949 0,0" /></g><g
           transform="translate(232.698,190.3181)"
           id="g422"><path
             id="path424"
             style="fill:#4a261c;fill-opacity:1;fill-rule:nonzero;stroke:none"
             d="m 0,0 c 0,-4.258 -6.619,-7.708 -14.783,-7.708 -8.165,0 -14.783,3.45 -14.783,7.708 0,4.257 6.618,7.707 14.783,7.707 C -6.619,7.707 0,4.257 0,0" /></g><g
           transform="translate(269.989,163.032)"
           id="g426"><path
             id="path428"
             style="fill:#4a261c;fill-opacity:1;fill-rule:nonzero;stroke:none"
             d="m 0,0 c 0,-6.325 -8.526,-11.453 -19.045,-11.453 -10.518,0 -19.045,5.128 -19.045,11.453 0,6.326 8.527,11.454 19.045,11.454 C -8.526,11.454 0,6.326 0,0" /></g><g
           transform="translate(259.4451,171.0789)"
           id="g430"><path
             id="path432"
             style="fill:#4a261c;fill-opacity:1;fill-rule:nonzero;stroke:none"
             d="m 0,0 c 0,-7.839 -20.769,-14.194 -46.388,-14.194 -25.619,0 -46.388,6.355 -46.388,14.194 0,7.84 20.769,14.194 46.388,14.194 C -20.769,14.194 0,7.84 0,0" /></g><g
           transform="translate(334.0486,166.1814)"
           id="g434"><path
             id="path436"
             style="fill:#4a261c;fill-opacity:1;fill-rule:nonzero;stroke:none"
             d="m 0,0 c 0,-5.858 -14.185,-10.607 -31.682,-10.607 -17.498,0 -31.682,4.749 -31.682,10.607 0,5.858 14.184,10.607 31.682,10.607 C -14.185,10.607 0,5.858 0,0" /></g><g
           transform="translate(159.8479,164.0271)"
           id="g438"><path
             id="path440"
             style="fill:#4a261c;fill-opacity:1;fill-rule:nonzero;stroke:none"
             d="m 0,0 c 0,-2.756 -3.887,-4.99 -8.682,-4.99 -4.795,0 -8.682,2.234 -8.682,4.99 0,2.757 3.887,4.991 8.682,4.991 C -3.887,4.991 0,2.757 0,0" /></g><g
           transform="translate(200.3352,148.9148)"
           id="g442"><path
             id="path444"
             style="fill:#4a261c;fill-opacity:1;fill-rule:nonzero;stroke:none"
             d="m 0,0 c 0,-2.354 -5.569,-4.262 -12.439,-4.262 -6.871,0 -12.439,1.908 -12.439,4.262 0,2.354 5.568,4.262 12.439,4.262 C -5.569,4.262 0,2.354 0,0" /></g><g
           transform="translate(240.7259,147.45)"
           id="g446"><path
             id="path448"
             style="fill:#4a261c;fill-opacity:1;fill-rule:nonzero;stroke:none"
             d="m 0,0 c 0,-1.545 -3.228,-2.797 -7.209,-2.797 -3.982,0 -7.21,1.252 -7.21,2.797 0,1.545 3.228,2.797 7.21,2.797 C -3.228,2.797 0,1.545 0,0" /></g><g
           transform="translate(303.1931,174.2508)"
           id="g450"><path
             id="path452"
             style="fill:#4a261c;fill-opacity:1;fill-rule:nonzero;stroke:none"
             d="m 0,0 c 0,-5.646 -10.385,-10.224 -23.194,-10.224 -12.811,0 -23.196,4.578 -23.196,10.224 0,5.646 10.385,10.224 23.196,10.224 C -10.385,10.224 0,5.646 0,0" /></g><g
           transform="translate(369.7312,172.4627)"
           id="g454"><path
             id="path456"
             style="fill:#4a261c;fill-opacity:1;fill-rule:nonzero;stroke:none"
             d="m 0,0 c 0,-1.902 -2.919,-3.444 -6.521,-3.444 -3.601,0 -6.52,1.542 -6.52,3.444 0,1.902 2.919,3.445 6.52,3.445 C -2.919,3.445 0,1.902 0,0" /></g><g
           transform="translate(375.6013,180.6785)"
           id="g458"><path
             id="path460"
             style="fill:#4a261c;fill-opacity:1;fill-rule:nonzero;stroke:none"
             d="m 0,0 c 0,-1.654 -1.908,-2.996 -4.262,-2.996 -2.353,0 -4.261,1.342 -4.261,2.996 0,1.655 1.908,2.997 4.261,2.997 C -1.908,2.997 0,1.655 0,0" /></g><g
           transform="translate(142.4842,273.5828)"
           id="g462"><path
             id="path464"
             style="fill:#ffd901;fill-opacity:1;fill-rule:nonzero;stroke:none"
             d="m 0,0 c 49.281,9.682 90.56,-21.137 109.697,-45.981 1.532,-1.989 3.566,-3.555 5.927,-4.408 3.069,-1.108 7.329,-1.648 11.28,1.293 7.278,5.417 56.514,49.447 94.441,37.868 0,0 -41.01,20.978 -104.594,24.95 C 31.067,19.076 0,0 0,0" /></g><g
           transform="translate(241.2171,274.8264)"
           id="g466"><path
             id="path468"
             style="fill:#ffed99;fill-opacity:1;fill-rule:nonzero;stroke:none"
             d="m 0,0 27.526,-19.601 c 0.646,-0.46 1.474,-0.584 2.227,-0.333 l 38.556,12.859 c 2.539,0.847 2.128,4.558 -0.534,4.83 L 1.694,4.497 C -0.844,4.755 -2.078,1.479 0,0" /></g><g
           transform="translate(270.1961,237.408)"
           id="g470"><path
             id="path472"
             style="fill:#f17600;fill-opacity:1;fill-rule:nonzero;stroke:none"
             d="m 0,0 c -3.923,-2.487 -8.186,-1.986 -11.263,-1.009 -2.368,0.753 -4.414,2.114 -5.963,3.834 -16.193,17.978 -47.929,39.672 -86.671,41.659 -16.726,-3.962 -23.815,-8.309 -23.815,-8.309 49.281,9.682 90.56,-21.137 109.697,-45.982 1.533,-1.988 3.566,-3.554 5.927,-4.407 3.069,-1.108 7.329,-1.648 11.28,1.293 7.278,5.417 56.514,49.446 94.441,37.868 0,0 -7.114,3.636 -20,8.168 C 40.401,29.979 5.976,3.79 0,0" /></g><g
           transform="translate(279.8113,243.9129)"
           id="g474"><path
             id="path476"
             style="fill:#161621;fill-opacity:1;fill-rule:nonzero;stroke:none"
             d="m 0,0 c 3.18,2.598 6.545,4.939 9.98,7.171 3.431,2.24 6.967,4.315 10.578,6.263 1.805,0.97 3.648,1.879 5.49,2.782 1.873,0.846 3.726,1.731 5.651,2.463 3.818,1.509 7.753,2.843 11.825,3.433 C 39.666,20.715 35.989,19.009 32.33,17.252 28.68,15.481 25.077,13.603 21.502,11.672 17.905,9.777 14.354,7.792 10.778,5.836 7.21,3.868 3.633,1.905 0,0" /></g><g
           transform="translate(186.6121,279.0105)"
           id="g478"><path
             id="path480"
             style="fill:#161621;fill-opacity:1;fill-rule:nonzero;stroke:none"
             d="m 0,0 c 5.961,-0.611 11.81,-2.132 17.486,-4.073 1.413,-0.505 2.841,-0.98 4.231,-1.548 l 4.169,-1.719 c 2.726,-1.266 5.446,-2.554 8.083,-4.005 l 1.977,-1.088 c 0.651,-0.375 1.286,-0.781 1.929,-1.17 1.277,-0.796 2.581,-1.548 3.834,-2.381 2.44,-1.765 4.979,-3.382 7.257,-5.359 4.744,-3.693 8.954,-8.037 12.768,-12.625 -4.704,3.71 -9.251,7.473 -14.169,10.749 -4.836,3.366 -9.854,6.454 -15.032,9.242 C 27.396,-11.109 22.072,-8.579 16.65,-6.25 11.219,-3.932 5.69,-1.824 0,0" /></g><g
           transform="translate(142.4842,273.5828)"
           id="g482"><path
             id="path484"
             style="fill:none;stroke:#161621;stroke-width:4;stroke-linecap:butt;stroke-linejoin:round;stroke-miterlimit:10;stroke-dasharray:none;stroke-opacity:1"
             d="m 0,0 c 49.281,9.682 90.56,-21.137 109.697,-45.981 1.532,-1.989 3.566,-3.555 5.927,-4.408 3.069,-1.108 7.329,-1.648 11.28,1.293 7.278,5.417 56.514,49.447 94.441,37.868 0,0 -41.01,20.978 -104.594,24.95 C 31.067,19.076 0,0 0,0 Z" /></g><g
           transform="translate(393.0642,143.6267)"
           id="g486"><path
             id="path488"
             style="fill:#f89b22;fill-opacity:1;fill-rule:nonzero;stroke:none"
             d="m 0,0 c 0.221,-29.992 -64.034,-54.781 -143.517,-55.367 -79.483,-0.587 -144.097,23.252 -144.318,53.244 -0.221,29.992 64.033,54.781 143.517,55.368 C -64.835,53.831 -0.222,29.992 0,0" /></g><g
           transform="translate(111.5833,147.8494)"
           id="g490"><path
             id="path492"
             style="fill:#161621;fill-opacity:1;fill-rule:nonzero;stroke:none"
             d="m 0,0 c 1.068,2.962 3.257,5.365 5.443,7.579 2.235,2.204 4.661,4.211 7.193,6.06 5.07,3.7 10.509,6.866 16.112,9.674 11.218,5.627 23.147,9.703 35.272,12.808 6.071,1.536 12.218,2.743 18.388,3.768 l 4.638,0.706 4.652,0.588 c 3.098,0.416 6.217,0.657 9.327,0.94 12.457,0.962 24.97,1.034 37.391,0.104 -12.451,-0.319 -24.85,-1.044 -37.164,-2.434 C 95.109,38.998 88.962,38.25 82.883,37.088 76.798,35.99 70.73,34.776 64.751,33.214 58.755,31.725 52.824,29.98 46.978,27.994 41.121,26.037 35.379,23.748 29.754,21.209 24.153,18.624 18.648,15.791 13.468,12.433 10.854,10.788 8.365,8.955 6.003,6.971 4.816,5.983 3.703,4.914 2.65,3.784 1.638,2.632 0.622,1.437 0,0" /></g><g
           transform="translate(259.4607,181.8494)"
           id="g494"><path
             id="path496"
             style="fill:#ffc144;fill-opacity:1;fill-rule:nonzero;stroke:none"
             d="m 0,0 v 0 c 0.256,-3.973 3.485,-7.096 7.464,-7.229 13.262,-0.44 42.818,-2.199 66.503,-9.223 31.547,-9.355 46.455,-15.586 50.323,-26.195 0,0 4.746,14.473 -9.401,24.407 C 101.379,-8.755 69.001,4.103 8.239,8.208 3.579,8.523 -0.3,4.66 0,0" /></g><g
           transform="translate(393.0642,143.6267)"
           id="g498"><path
             id="path500"
             style="fill:none;stroke:#161621;stroke-width:4.6079998;stroke-linecap:butt;stroke-linejoin:miter;stroke-miterlimit:10;stroke-dasharray:none;stroke-opacity:1"
             d="m 0,0 c 0.221,-29.992 -64.034,-54.781 -143.517,-55.367 -79.483,-0.587 -144.097,23.252 -144.318,53.244 -0.221,29.992 64.033,54.781 143.517,55.368 C -64.835,53.831 -0.222,29.992 0,0 Z" /></g><g
           transform="translate(380.615,129.6541)"
           id="g502"><path
             id="path504"
             style="fill:#f17600;fill-opacity:1;fill-rule:nonzero;stroke:none"
             d="m 0,0 c 0.165,-22.326 -58.517,-40.86 -131.068,-41.395 -72.552,-0.535 -131.499,17.13 -131.664,39.458 -0.165,22.327 58.516,40.86 131.067,41.395 C -59.112,39.993 -0.164,22.327 0,0" /></g><g
           transform="translate(366.2449,122.7801)"
           id="g506"><path
             id="path508"
             style="fill:#b65100;fill-opacity:1;fill-rule:nonzero;stroke:none"
             d="m 0,0 c 0.138,-18.589 -52.109,-34.045 -116.697,-34.521 -64.588,-0.476 -117.057,14.207 -117.195,32.795 -0.137,18.59 52.111,34.045 116.698,34.522 C -52.606,33.272 -0.137,18.589 0,0" /></g><g
           transform="translate(131.8728,121.6443)"
           id="g510"><path
             id="path512"
             style="fill:#161621;fill-opacity:1;fill-rule:nonzero;stroke:none"
             d="m 0,0 c 6.503,-3.048 13.231,-5.479 20.039,-7.616 1.708,-0.517 3.378,-1.132 5.105,-1.59 l 5.15,-1.436 2.574,-0.712 2.595,-0.638 5.187,-1.275 c 1.72,-0.456 3.475,-0.777 5.219,-1.134 l 5.223,-1.103 2.611,-0.552 2.633,-0.444 5.266,-0.888 c 1.758,-0.273 3.499,-0.644 5.262,-0.887 l 5.292,-0.715 5.291,-0.716 c 0.883,-0.113 1.762,-0.253 2.647,-0.344 l 2.66,-0.242 10.63,-1.076 c 3.546,-0.335 7.113,-0.426 10.666,-0.69 7.108,-0.64 14.245,-0.564 21.382,-0.874 3.569,-0.2 7.138,-0.033 10.712,-0.055 l 10.731,0.002 c 7.152,0.162 14.307,0.492 21.506,0.531 -7.098,-1.061 -14.23,-1.999 -21.381,-2.797 l -10.765,-0.765 c -3.591,-0.231 -7.184,-0.526 -10.786,-0.523 -7.2,-0.12 -14.412,-0.277 -21.616,0.11 l -5.403,0.24 c -1.8,0.108 -3.606,0.117 -5.4,0.319 l -10.78,0.986 -2.693,0.273 c -0.896,0.101 -1.787,0.252 -2.681,0.376 l -5.359,0.778 -5.358,0.78 c -1.784,0.266 -3.553,0.647 -5.325,0.992 -7.094,1.344 -14.139,2.968 -21.085,4.94 -6.938,2.004 -13.808,4.253 -20.482,7.008 C 12.608,-6.985 6.022,-3.947 0,0" /></g><g
           transform="translate(325.7859,162.0584)"
           id="g514"><path
             id="path516"
             style="fill:#161621;fill-opacity:1;fill-rule:nonzero;stroke:none"
             d="m 0,0 c 8.722,-1.18 17.365,-3.091 25.785,-5.886 4.211,-1.395 8.349,-3.06 12.362,-5.065 4.009,-2.007 7.879,-4.416 11.335,-7.51 1.722,-1.552 3.306,-3.32 4.612,-5.352 1.307,-2.025 2.25,-4.398 2.588,-6.908 0.069,-0.626 0.119,-1.263 0.11,-1.893 l -0.132,-1.897 c -0.058,-0.63 -0.255,-1.23 -0.383,-1.846 -0.079,-0.303 -0.131,-0.619 -0.235,-0.911 l -0.34,-0.865 c -0.248,-0.563 -0.418,-1.181 -0.74,-1.695 l -0.898,-1.592 c -0.302,-0.529 -0.688,-0.981 -1.031,-1.475 -0.355,-0.48 -0.693,-0.981 -1.102,-1.401 -3.102,-3.577 -6.829,-6.32 -10.686,-8.679 -3.873,-2.35 -7.922,-4.304 -12.034,-6.054 -8.246,-3.453 -16.765,-6.043 -25.361,-8.195 -8.599,-2.162 -17.313,-3.754 -26.052,-5.076 -17.491,-2.601 -35.143,-3.881 -52.797,-4.124 -17.656,-0.165 -35.334,0.686 -52.892,2.833 -8.774,1.1 -17.525,2.497 -26.187,4.41 -2.169,0.454 -4.32,1.009 -6.481,1.513 -2.145,0.58 -4.305,1.091 -6.436,1.735 -4.283,1.194 -8.516,2.611 -12.703,4.177 -4.188,1.565 -8.306,3.386 -12.294,5.536 -3.977,2.162 -7.852,4.66 -11.283,7.9 -0.446,0.377 -0.826,0.854 -1.24,1.277 -0.398,0.447 -0.829,0.851 -1.195,1.336 -0.729,0.974 -1.504,1.898 -2.09,3.01 -0.678,1.03 -1.124,2.233 -1.607,3.401 -0.329,1.24 -0.715,2.476 -0.754,3.786 -0.275,2.587 0.259,5.234 1.269,7.528 1.002,2.314 2.417,4.342 4.031,6.084 1.608,1.752 3.379,3.278 5.22,4.658 1.838,1.387 3.767,2.604 5.748,3.696 3.953,2.202 8.051,4.027 12.243,5.528 8.367,3.047 17.004,5.085 25.731,6.329 -8.321,-2.901 -16.577,-5.822 -24.459,-9.429 -3.927,-1.821 -7.787,-3.755 -11.392,-6.017 -3.586,-2.265 -7.033,-4.762 -9.684,-7.807 -2.635,-3.006 -4.45,-6.596 -4.018,-10.177 0.012,-0.898 0.325,-1.766 0.539,-2.646 0.385,-0.846 0.68,-1.721 1.23,-2.522 0.436,-0.842 1.093,-1.593 1.677,-2.376 0.294,-0.392 0.677,-0.734 1.009,-1.105 0.356,-0.355 0.658,-0.75 1.057,-1.076 2.979,-2.772 6.548,-5.065 10.286,-7.055 3.751,-1.986 7.691,-3.699 11.734,-5.172 4.043,-1.477 8.149,-2.82 12.33,-3.95 2.074,-0.611 4.191,-1.092 6.285,-1.643 2.117,-0.477 4.22,-1.003 6.349,-1.431 8.498,-1.778 17.087,-3.207 25.729,-4.27 17.29,-2.109 34.752,-2.945 52.193,-2.775 17.443,0.122 34.891,1.26 52.143,3.702 8.622,1.23 17.198,2.777 25.652,4.78 8.447,2.009 16.798,4.448 24.787,7.685 3.979,1.639 7.873,3.468 11.53,5.63 3.642,2.161 7.081,4.673 9.772,7.709 0.366,0.361 0.641,0.774 0.942,1.171 0.286,0.405 0.628,0.785 0.872,1.208 l 0.733,1.267 c 0.275,0.412 0.382,0.877 0.587,1.31 0.712,1.762 1.031,3.631 0.811,5.48 -0.233,1.842 -0.897,3.663 -1.952,5.334 -1.042,1.677 -2.4,3.214 -3.897,4.638 -3.009,2.858 -6.629,5.172 -10.368,7.26 -3.747,2.097 -7.71,3.857 -11.718,5.529 C 16.785,-5.159 8.431,-2.518 0,0" /></g></g></g></g></svg>